# MagicaVoxel @ Ephtracy

# group
o 

# material
mtllib untitled.mtl
usemtl palette

# normals
vn -1 0 0
vn 1 0 0
vn 0 0 1
vn 0 0 -1
vn 0 -1 0
vn 0 1 0

# texcoords
vt 0.533203 0.5
vt 0.748047 0.5
vt 0.880859 0.5

# verts
v -2 0 2
v -2 0 -2
v -2 3.4 -0.8
v -2 3.4 -0.9
v -2 3.7 -0.8
v -2 3.7 -0.9
v -2 3.9 2
v -2 3.9 -2
v -2 4 2
v -2 4 -2
v -1.6 2.6 1.4
v -1.6 2.6 1.3
v -1.6 2.6 -0.1
v -1.6 2.6 -0.3
v -1.6 2.6 -0.7
v -1.6 3.2 -0.1
v -1.6 3.2 -0.3
v -1.6 3.2 -0.6
v -1.6 3.2 -0.7
v -1.6 3.4 1.4
v -1.6 3.4 1.3
v -1.6 3.4 0.7
v -1.6 3.5 1.4
v -1.6 3.5 1.3
v -1.6 3.5 0.7
v -1.6 3.6 -1.1
v -1.6 3.6 -1.2
v -1.6 3.7 1.7
v -1.6 3.7 1.4
v -1.6 3.7 -0.6
v -1.6 3.7 -0.7
v -1.6 3.7 -1.1
v -1.6 3.7 -1.2
v -1.6 3.8 1.7
v -1.6 3.8 1.3
v -1.6 3.9 1.3
v -1.6 3.9 -0.7
v -1.5 0.4 1.9
v -1.5 0.4 1.7
v -1.5 0.5 1.7
v -1.5 0.5 1
v -1.5 0.7 1
v -1.5 0.7 0.6
v -1.5 1.8 1.9
v -1.5 1.8 1.4
v -1.5 1.8 1.3
v -1.5 1.8 0.6
v -0.8 0.5 -2.38419e-07
v -0.8 0.5 -0.7
v -0.8 0.9 -0.7
v -0.8 0.9 -0.8
v -0.8 1.5 -2.38419e-07
v -0.8 1.5 -0.8
v -0.8 3.4 1.4
v -0.8 3.4 1.3
v -0.8 3.4 0.7
v -0.8 3.5 1.4
v -0.8 3.5 1.3
v -0.8 3.5 0.7
v -0.7 3.4 1.9
v -0.7 3.4 1.4
v -0.7 3.5 1.4
v -0.7 3.5 1.3
v -0.7 3.6 1.8
v -0.7 3.6 1.6
v -0.7 3.6 1.4
v -0.7 3.6 1.3
v -0.7 3.7 1.9
v -0.7 3.7 1.8
v -0.7 3.7 1.6
v -0.7 3.7 1.4
v -0.2 3.6 1.8
v -0.2 3.6 1.6
v -0.2 3.7 1.9
v -0.2 3.7 1.8
v -0.2 3.7 1.7
v -0.2 3.8 1.7
v -0.2 3.8 1.6
v -0.2 3.9 1.9
v -0.2 3.9 1.8
v -0.2 3.9 1.7
v 2.38419e-07 1.5 -1.2
v 2.38419e-07 1.5 -1.6
v 2.38419e-07 1.6 -1.6
v 2.38419e-07 1.6 -1.7
v 2.38419e-07 1.7 -1.7
v 2.38419e-07 1.7 -1.9
v 2.38419e-07 1.8 -1.2
v 2.38419e-07 1.8 -1.9
v 0.1 1.6 -0.2
v 0.1 1.6 -1.2
v 0.1 1.8 -0.2
v 0.1 1.8 -1.2
v 0.2 1.9 1.9
v 0.2 1.9 1.4
v 0.2 2.6 1.4
v 0.2 3.4 1.9
v 0.2 3.4 1.4
v 0.7 1.5 -0.6
v 0.7 1.5 -1.2
v 0.7 1.6 -0.6
v 0.7 1.6 -1.2
v 0.8 0.2 -1.5
v 0.8 0.2 -1.8
v 0.8 0.3 -1.8
v 0.8 0.3 -1.9
v 0.8 0.5 -1.5
v 0.8 0.5 -1.9
v 0.8 1.9 -1.7
v 0.8 1.9 -1.8
v 0.8 2 -1.7
v 0.8 2 -1.8
v 0.9 1.5 -0.1
v 0.9 1.5 -0.6
v 0.9 1.6 -0.1
v 0.9 1.6 -0.2
v 0.9 1.6 -0.6
v 0.9 1.8 1.9
v 0.9 1.8 1.5
v 0.9 1.8 -0.3
v 0.9 1.8 -0.6
v 0.9 1.9 1.9
v 0.9 1.9 1.5
v 0.9 1.9 -0.3
v 0.9 1.9 -0.6
v 1 3.7 -1.1
v 1 3.7 -1.2
v 1 3.8 -0.8
v 1 3.8 -1.1
v 1 3.8 -1.2
v 1 3.8 -1.8
v 1 3.9 -0.8
v 1 3.9 -1.8
v 1.2 0.3 0.0999999
v 1.2 0.3 -0.7
v 1.2 0.5 -2.38419e-07
v 1.2 0.5 -0.7
v 1.2 0.7 0.4
v 1.2 0.7 0.0999999
v 1.2 1 0.4
v 1.2 1 -2.38419e-07
v 1.2 1.9 -1.1
v 1.2 1.9 -1.7
v 1.2 2.2 -1.1
v 1.2 2.2 -1.2
v 1.2 2.7 -1.2
v 1.2 2.7 -1.7
v 1.4 0 -1.8
v 1.4 0 -1.9
v 1.4 0.1 -1.8
v 1.4 0.1 -1.9
v 1.6 1.8 1.5
v 1.6 1.8 0.6
v 1.6 1.8 -0.7
v 1.6 1.8 -1.1
v 1.6 1.9 1.5
v 1.6 1.9 -0.8
v 1.6 1.9 -1.1
v 1.6 2.1 -1.7
v 1.6 2.1 -1.8
v 1.6 2.5 -1.8
v 1.6 2.7 -1.4
v 1.6 2.7 -1.7
v 1.6 3.4 -1.4
v 1.6 3.4 -1.8
v 1.7 0.3 -1.5
v 1.7 0.3 -1.8
v 1.7 0.4 -1.8
v 1.7 0.4 -1.9
v 1.7 0.5 -1.5
v 1.7 0.5 -1.9
v 1.7 2.7 -1.2
v 1.7 2.7 -1.4
v 1.7 3.4 -1.2
v 1.7 3.4 -1.4
v 1.8 1.5 -1.7
v 1.8 1.5 -1.8
v 1.8 1.7 -1.7
v 1.8 1.7 -1.8
v 1.8 1.9 -0.8
v 1.8 1.9 -1.1
v 1.8 2.2 -0.8
v 1.8 2.2 -1.1
v 1.8 3.6 -1.1
v 1.8 3.6 -1.2
v 1.8 3.7 -1.1
v 1.8 3.7 -1.2
v 1.9 0.2 1.9
v 1.9 0.2 1.8
v 1.9 0.3 1.8
v 1.9 0.3 1.7
v 1.9 0.5 1.7
v 1.9 0.5 1
v 1.9 0.7 1
v 1.9 0.7 0.4
v 1.9 1 0.4
v 1.9 1 -2.38419e-07
v 1.9 1.5 -2.38419e-07
v 1.9 1.5 -0.1
v 1.9 1.6 -0.1
v 1.9 1.6 -0.7
v 1.9 1.8 1.9
v 1.9 1.8 -0.7
v 1.9 2.6 -0.8
v 1.9 2.6 -1.1
v 1.9 2.7 -0.8
v 1.9 2.7 -1.1
v -1.9 0.3 0.0999999
v -1.9 0.3 -0.1
v -1.9 0.3 -0.3
v -1.9 0.3 -0.5
v -1.9 0.3 -0.6
v -1.9 0.3 -0.7
v -1.9 0.4 0.0999999
v -1.9 0.4 -0.1
v -1.9 0.4 -0.3
v -1.9 0.4 -0.5
v -1.9 0.4 -0.6
v -1.9 0.4 -0.7
v -1.8 0.3 -0.5
v -1.8 0.3 -0.6
v -1.8 0.4 -0.5
v -1.8 0.4 -0.6
v -1.8 3.6 -1.1
v -1.8 3.6 -1.2
v -1.8 3.7 -1.1
v -1.8 3.7 -1.2
v -1.7 2.6 1.9
v -1.7 2.6 -0.1
v -1.7 2.6 -0.3
v -1.7 2.6 -0.7
v -1.7 3.2 -0.1
v -1.7 3.2 -0.3
v -1.7 3.2 -0.6
v -1.7 3.2 -0.7
v -1.7 3.7 -0.6
v -1.7 3.7 -0.7
v -1.7 3.8 1.7
v -1.7 3.8 1.3
v -1.7 3.9 1.9
v -1.7 3.9 1.7
v -1.7 3.9 1.3
v -1.7 3.9 -0.7
v -1.6 0 -1.8
v -1.6 0 -1.9
v -1.6 0.1 -1.8
v -1.6 0.1 -1.9
v -1.6 0.3 -0.1
v -1.6 0.3 -0.3
v -1.6 0.4 1.9
v -1.6 0.4 1.7
v -1.6 0.4 0.0999999
v -1.6 0.4 -0.1
v -1.6 0.4 -0.3
v -1.6 0.4 -0.7
v -1.6 0.5 1.7
v -1.6 0.5 1
v -1.6 0.7 1
v -1.6 0.7 0.0999999
v -1.6 0.9 -0.7
v -1.6 0.9 -0.8
v -1.6 1.7 -1.8
v -1.6 1.7 -1.9
v -1.6 1.8 1.4
v -1.6 1.8 1.3
v -1.6 1.8 -0.8
v -1.6 1.8 -1.8
v -1.6 1.8 -1.9
v -1.6 1.9 1.4
v -1.6 2.6 1.9
v -1.6 2.6 1.4
v -1.2 3.5 1.4
v -1.2 3.5 1.3
v -1.2 3.6 1.4
v -1.2 3.6 1.3
v -1.2 3.7 1.7
v -1.2 3.7 1.6
v -1.2 3.8 1.7
v -1.2 3.8 1.6
v -0.8 0.2 -1.5
v -0.8 0.2 -1.6
v -0.8 0.5 -1.5
v -0.8 0.5 -1.6
v -0.8 1.5 -0.8
v -0.8 1.5 -1.6
v -0.8 1.6 -1.6
v -0.8 1.6 -1.7
v -0.8 1.7 -1.7
v -0.8 1.7 -1.8
v -0.8 1.8 -0.8
v -0.8 1.8 -1.8
v 2.38419e-07 0.2 -1.6
v 2.38419e-07 0.2 -1.8
v 2.38419e-07 0.3 -1.8
v 2.38419e-07 0.3 -1.9
v 2.38419e-07 0.5 -1.6
v 2.38419e-07 0.5 -1.9
v 0.2 1.8 1.4
v 0.2 1.8 0.6
v 0.2 1.8 -0.2
v 0.2 1.8 -0.6
v 0.2 1.9 1.4
v 0.2 1.9 -0.6
v 0.2 1.9 -0.8
v 0.2 1.9 -1.8
v 0.2 2.2 -0.8
v 0.2 2.2 -1.2
v 0.2 2.5 -1.2
v 0.2 2.5 -1.8
v 0.2 3.3 -1.2
v 0.2 3.3 -1.8
v 0.2 3.4 -1.2
v 0.2 3.4 -1.8
v 0.2 3.6 -1.1
v 0.2 3.6 -1.2
v 0.2 3.7 -1.1
v 0.2 3.7 -1.2
v 0.2 3.8 -0.8
v 0.2 3.8 -1.1
v 0.2 3.8 -1.2
v 0.2 3.8 -1.6
v 0.2 3.8 -1.7
v 0.2 3.9 -0.8
v 0.2 3.9 -1.6
v 0.2 3.9 -1.7
v 0.5 3.3 -1.8
v 0.5 3.3 -1.9
v 0.5 3.4 -1.8
v 0.5 3.4 -1.9
v 0.6 3.2 -1.2
v 0.6 3.2 -1.9
v 0.6 3.3 -1.2
v 0.6 3.3 -1.9
v 0.7 2.5 -1.2
v 0.7 2.5 -1.8
v 0.7 2.7 -1.8
v 0.7 2.7 -1.9
v 0.7 3.2 -1.2
v 0.7 3.2 -1.9
v 0.9 1.9 -1.7
v 0.9 1.9 -1.8
v 0.9 2 -1.7
v 0.9 2 -1.8
v 0.9 3.8 -1.7
v 0.9 3.8 -1.8
v 0.9 3.9 -1.7
v 0.9 3.9 -1.8
v 1.2 1.8 -0.3
v 1.2 1.8 -0.6
v 1.2 1.9 -0.3
v 1.2 1.9 -0.6
v 1.3 2.5 -1.8
v 1.3 2.5 -1.9
v 1.3 2.7 -1.8
v 1.3 2.7 -1.9
v 1.4 0.3 -1.5
v 1.4 0.3 -1.8
v 1.4 0.4 -1.8
v 1.4 0.4 -1.9
v 1.4 0.5 -1.5
v 1.4 0.5 -1.9
v 1.4 1.5 -1.7
v 1.4 1.5 -1.8
v 1.4 1.6 -1.7
v 1.4 1.6 -1.8
v 1.4 1.8 -0.6
v 1.4 1.8 -1.1
v 1.4 1.8 -1.7
v 1.4 1.8 -1.8
v 1.4 1.9 -0.6
v 1.4 1.9 -0.8
v 1.4 1.9 -1.1
v 1.4 1.9 -1.7
v 1.4 1.9 -1.8
v 1.5 1.6 -0.2
v 1.5 1.6 -0.7
v 1.5 1.6 -1.7
v 1.5 1.6 -1.8
v 1.5 1.8 -0.2
v 1.5 1.8 -0.7
v 1.5 1.8 -1.7
v 1.5 1.8 -1.8
v 1.6 0.2 1.9
v 1.6 0.2 1.8
v 1.6 0.3 1.8
v 1.6 0.3 1.7
v 1.6 0.5 1.7
v 1.6 0.5 1
v 1.6 0.7 1
v 1.6 0.7 0.6
v 1.6 1.1 1.9
v 1.6 1.1 1.5
v 1.6 1.8 1.5
v 1.6 1.8 0.6
v 1.7 1.1 1.9
v 1.7 1.1 1.5
v 1.7 1.8 1.9
v 1.7 1.8 1.5
v 1.8 2.6 -0.8
v 1.8 2.6 -1.1
v 1.8 2.7 -0.8
v 1.8 2.7 -1.1
v 2 0 2
v 2 0 -2
v 2 1.7 -1.7
v 2 1.7 -1.8
v 2 2.1 -1.7
v 2 2.1 -1.8
v 2 2.5 -1.8
v 2 2.5 -1.9
v 2 3.4 -1.2
v 2 3.4 -1.8
v 2 3.4 -1.9
v 2 3.4 -2
v 2 3.5 -0.4
v 2 3.5 -1.2
v 2 3.6 2
v 2 3.6 -0.4
v 2 3.9 2
v 2 3.9 -2
v 2 4 2
v 2 4 -2
v -2 0 2
v -2 3.9 2
v -2 4 2
v 0.2 3.7 2
v 0.2 3.9 2
v 1.9 3.6 2
v 1.9 3.7 2
v 2 0 2
v 2 3.6 2
v 2 3.9 2
v 2 4 2
v 1.6 0.2 1.8
v 1.6 0.3 1.8
v 1.9 0.2 1.8
v 1.9 0.3 1.8
v -1.7 3.8 1.7
v -1.7 3.9 1.7
v -1.6 0.4 1.7
v -1.6 0.5 1.7
v -1.6 3.7 1.7
v -1.6 3.8 1.7
v -1.5 0.4 1.7
v -1.5 0.5 1.7
v -1.2 3.7 1.7
v -1.2 3.8 1.7
v -0.2 3.8 1.7
v -0.2 3.9 1.7
v 1.6 0.3 1.7
v 1.6 0.5 1.7
v 1.9 0.3 1.7
v 1.9 0.5 1.7
v -1.2 3.7 1.6
v -1.2 3.8 1.6
v -0.7 3.6 1.6
v -0.7 3.7 1.6
v -0.2 3.6 1.6
v -0.2 3.8 1.6
v -1.6 1.8 1.4
v -1.6 1.9 1.4
v -1.6 2.6 1.4
v -1.6 3.4 1.4
v -1.6 3.5 1.4
v -1.6 3.7 1.4
v -1.5 1.8 1.4
v -1.2 3.5 1.4
v -1.2 3.6 1.4
v -0.8 3.4 1.4
v -0.8 3.5 1.4
v -0.7 1.9 1.4
v -0.7 2.1 1.4
v -0.7 3.4 1.4
v -0.7 3.5 1.4
v -0.7 3.6 1.4
v -0.7 3.7 1.4
v -0.6 1.9 1.4
v -0.6 2.1 1.4
v -0.4 1.8 1.4
v -0.4 1.9 1.4
v 0.2 1.8 1.4
v 0.2 1.9 1.4
v 0.2 2.6 1.4
v 0.2 3.4 1.4
v -1.2 3.5 1.3
v -1.2 3.6 1.3
v -0.8 3.5 1.3
v -0.7 3.5 1.3
v -0.7 3.6 1.3
v -1.6 0.5 1
v -1.6 0.7 1
v -1.5 0.5 1
v -1.5 0.7 1
v 1.6 0.5 1
v 1.6 0.7 1
v 1.9 0.5 1
v 1.9 0.7 1
v -1.6 3.4 0.7
v -1.6 3.5 0.7
v -0.8 3.4 0.7
v -0.8 3.5 0.7
v 1.2 0.7 0.4
v 1.2 1 0.4
v 1.9 0.7 0.4
v 1.9 1 0.4
v -0.8 0.5 -2.38419e-07
v -0.8 1.5 -2.38419e-07
v 1.2 0.5 -2.38419e-07
v 1.2 1 -2.38419e-07
v 1.9 1 -2.38419e-07
v 1.9 1.5 -2.38419e-07
v -1.9 0.3 -0.1
v -1.9 0.4 -0.1
v -1.7 2.6 -0.1
v -1.7 3.2 -0.1
v -1.6 0.3 -0.1
v -1.6 0.4 -0.1
v -1.6 2.6 -0.1
v -1.6 3.2 -0.1
v 0.9 1.5 -0.1
v 0.9 1.6 -0.1
v 1.9 1.5 -0.1
v 1.9 1.6 -0.1
v 0.1 1.6 -0.2
v 0.1 1.8 -0.2
v 0.2 1.8 -0.2
v 0.9 1.6 -0.2
v 1.5 1.6 -0.2
v 1.5 1.8 -0.2
v 0.9 1.8 -0.3
v 0.9 1.9 -0.3
v 1.2 1.8 -0.3
v 1.2 1.9 -0.3
v -1.9 0.3 -0.5
v -1.9 0.4 -0.5
v -1.8 0.3 -0.5
v -1.8 0.4 -0.5
v -1.7 3.2 -0.6
v -1.7 3.7 -0.6
v -1.6 3.2 -0.6
v -1.6 3.7 -0.6
v 0.2 1.8 -0.6
v 0.2 1.9 -0.6
v 0.7 1.5 -0.6
v 0.7 1.6 -0.6
v 0.9 1.5 -0.6
v 0.9 1.6 -0.6
v 0.9 1.8 -0.6
v 0.9 1.9 -0.6
v 1.2 1.8 -0.6
v 1.2 1.9 -0.6
v 1.4 1.8 -0.6
v 1.4 1.9 -0.6
v -1.9 0.3 -0.7
v -1.9 0.4 -0.7
v -1.7 2.6 -0.7
v -1.7 3.2 -0.7
v -1.7 3.7 -0.7
v -1.7 3.9 -0.7
v -1.6 0.4 -0.7
v -1.6 0.9 -0.7
v -1.6 2.6 -0.7
v -1.6 3.2 -0.7
v -1.6 3.7 -0.7
v -1.6 3.9 -0.7
v -0.8 0.5 -0.7
v -0.8 0.9 -0.7
v 1.2 0.3 -0.7
v 1.2 0.5 -0.7
v 1.5 1.6 -0.7
v 1.5 1.8 -0.7
v 1.6 1.8 -0.7
v 1.9 1.6 -0.7
v 1.9 1.8 -0.7
v -1.6 0.9 -0.8
v -1.6 1.8 -0.8
v -0.8 0.9 -0.8
v -0.8 1.5 -0.8
v -0.8 1.8 -0.8
v 1.2 1.9 -1.1
v 1.2 2.2 -1.1
v 1.4 1.8 -1.1
v 1.4 1.9 -1.1
v 1.6 1.8 -1.1
v 1.6 1.9 -1.1
v 1.8 1.9 -1.1
v 1.8 2.2 -1.1
v 1.8 2.6 -1.1
v 1.8 2.7 -1.1
v 1.9 2.6 -1.1
v 1.9 2.7 -1.1
v -1.8 3.6 -1.2
v -1.8 3.7 -1.2
v -1.6 3.6 -1.2
v -1.6 3.7 -1.2
v 2.38419e-07 1.5 -1.2
v 2.38419e-07 1.8 -1.2
v 0.1 1.6 -1.2
v 0.1 1.8 -1.2
v 0.2 3.6 -1.2
v 0.2 3.7 -1.2
v 0.2 3.8 -1.2
v 0.7 1.5 -1.2
v 0.7 1.6 -1.2
v 1 3.7 -1.2
v 1 3.8 -1.2
v 1.8 3.6 -1.2
v 1.8 3.7 -1.2
v 1.6 2.7 -1.4
v 1.6 3.4 -1.4
v 1.7 2.7 -1.4
v 1.7 3.4 -1.4
v -0.8 0.2 -1.6
v -0.8 0.5 -1.6
v -0.8 1.5 -1.6
v -0.8 1.6 -1.6
v 2.38419e-07 0.2 -1.6
v 2.38419e-07 0.5 -1.6
v 2.38419e-07 1.5 -1.6
v 2.38419e-07 1.6 -1.6
v -0.8 1.6 -1.7
v -0.8 1.7 -1.7
v 2.38419e-07 1.6 -1.7
v 2.38419e-07 1.7 -1.7
v 0.2 3.8 -1.7
v 0.2 3.9 -1.7
v 0.8 1.9 -1.7
v 0.8 2 -1.7
v 0.9 1.9 -1.7
v 0.9 2 -1.7
v 0.9 3.8 -1.7
v 0.9 3.9 -1.7
v 2.38419e-07 0.2 -1.8
v 2.38419e-07 0.3 -1.8
v 0.2 1.9 -1.8
v 0.2 2.5 -1.8
v 0.2 3.3 -1.8
v 0.2 3.4 -1.8
v 0.5 3.3 -1.8
v 0.5 3.4 -1.8
v 0.7 2.5 -1.8
v 0.7 2.7 -1.8
v 0.8 0.2 -1.8
v 0.8 0.3 -1.8
v 0.8 1.9 -1.8
v 0.8 2 -1.8
v 0.9 1.9 -1.8
v 0.9 2 -1.8
v 0.9 3.8 -1.8
v 0.9 3.9 -1.8
v 1 3.8 -1.8
v 1 3.9 -1.8
v 1.3 2.5 -1.8
v 1.3 2.7 -1.8
v 1.4 0.3 -1.8
v 1.4 0.4 -1.8
v 1.4 1.5 -1.8
v 1.4 1.6 -1.8
v 1.4 1.8 -1.8
v 1.4 1.9 -1.8
v 1.5 1.6 -1.8
v 1.5 1.8 -1.8
v 1.6 2.1 -1.8
v 1.6 2.5 -1.8
v 1.7 0.3 -1.8
v 1.7 0.4 -1.8
v 1.8 1.5 -1.8
v 1.8 1.7 -1.8
v 2 1.7 -1.8
v 2 2.1 -1.8
v -1.6 0 -1.9
v -1.6 0.1 -1.9
v -1.6 1.7 -1.9
v -1.6 1.8 -1.9
v 2.38419e-07 0.3 -1.9
v 2.38419e-07 0.5 -1.9
v 2.38419e-07 1.7 -1.9
v 2.38419e-07 1.8 -1.9
v 0.5 3.3 -1.9
v 0.5 3.4 -1.9
v 0.6 3.2 -1.9
v 0.6 3.3 -1.9
v 0.7 2.7 -1.9
v 0.7 3.2 -1.9
v 0.8 0.3 -1.9
v 0.8 0.5 -1.9
v 1.3 2.5 -1.9
v 1.3 2.7 -1.9
v 1.4 0 -1.9
v 1.4 0.1 -1.9
v 1.4 0.4 -1.9
v 1.4 0.5 -1.9
v 1.7 0.4 -1.9
v 1.7 0.5 -1.9
v 2 2.5 -1.9
v 2 3.4 -1.9
v -1.7 2.6 1.9
v -1.7 3.9 1.9
v -1.6 0.4 1.9
v -1.6 2.6 1.9
v -1.5 0.4 1.9
v -1.5 1.8 1.9
v -0.7 3.4 1.9
v -0.7 3.7 1.9
v -0.2 3.7 1.9
v -0.2 3.9 1.9
v 0.2 1.9 1.9
v 0.2 3.4 1.9
v 0.9 1.8 1.9
v 0.9 1.9 1.9
v 1.6 0.2 1.9
v 1.6 1.1 1.9
v 1.7 1.1 1.9
v 1.7 1.8 1.9
v 1.9 0.2 1.9
v 1.9 1.8 1.9
v -0.7 3.6 1.8
v -0.7 3.7 1.8
v -0.2 3.6 1.8
v -0.2 3.7 1.8
v 0.9 1.8 1.5
v 0.9 1.9 1.5
v 1.6 1.1 1.5
v 1.6 1.8 1.5
v 1.6 1.9 1.5
v 1.7 1.1 1.5
v 1.7 1.8 1.5
v -1.7 3.8 1.3
v -1.7 3.9 1.3
v -1.6 3.8 1.3
v -1.6 3.9 1.3
v -1.5 0.7 0.6
v -1.5 1.8 0.6
v 0.2 1.8 0.6
v 1.6 0.7 0.6
v 1.6 1.8 0.6
v -1.9 0.3 0.0999999
v -1.9 0.4 0.0999999
v -1.6 0.4 0.0999999
v -1.6 0.7 0.0999999
v 1.2 0.3 0.0999999
v 1.2 0.7 0.0999999
v -1.9 0.3 -0.3
v -1.9 0.4 -0.3
v -1.7 2.6 -0.3
v -1.7 3.2 -0.3
v -1.6 0.3 -0.3
v -1.6 0.4 -0.3
v -1.6 2.6 -0.3
v -1.6 3.2 -0.3
v -1.9 0.3 -0.6
v -1.9 0.4 -0.6
v -1.8 0.3 -0.6
v -1.8 0.4 -0.6
v 0.2 1.9 -0.8
v 0.2 2.2 -0.8
v 0.2 3.8 -0.8
v 0.2 3.9 -0.8
v 1 3.8 -0.8
v 1 3.9 -0.8
v 1.4 1.9 -0.8
v 1.6 1.9 -0.8
v 1.8 1.9 -0.8
v 1.8 2.2 -0.8
v 1.8 2.6 -0.8
v 1.8 2.7 -0.8
v 1.9 2.6 -0.8
v 1.9 2.7 -0.8
v -1.8 3.6 -1.1
v -1.8 3.7 -1.1
v -1.6 3.6 -1.1
v -1.6 3.7 -1.1
v 0.2 3.6 -1.1
v 0.2 3.7 -1.1
v 0.2 3.8 -1.1
v 1 3.7 -1.1
v 1 3.8 -1.1
v 1.8 3.6 -1.1
v 1.8 3.7 -1.1
v 0.2 2.2 -1.2
v 0.2 2.5 -1.2
v 0.2 3.3 -1.2
v 0.2 3.4 -1.2
v 0.6 3.2 -1.2
v 0.6 3.3 -1.2
v 0.7 2.5 -1.2
v 0.7 3.2 -1.2
v 0.7 3.4 -1.2
v 1.2 2.2 -1.2
v 1.2 2.7 -1.2
v 1.7 2.7 -1.2
v 1.7 3.4 -1.2
v -0.8 0.2 -1.5
v -0.8 0.5 -1.5
v 0.8 0.2 -1.5
v 0.8 0.5 -1.5
v 1.4 0.3 -1.5
v 1.4 0.5 -1.5
v 1.7 0.3 -1.5
v 1.7 0.5 -1.5
v 1.2 1.9 -1.7
v 1.2 2.7 -1.7
v 1.4 1.5 -1.7
v 1.4 1.6 -1.7
v 1.4 1.8 -1.7
v 1.4 1.9 -1.7
v 1.5 1.6 -1.7
v 1.5 1.8 -1.7
v 1.6 2.1 -1.7
v 1.6 2.7 -1.7
v 1.8 1.5 -1.7
v 1.8 1.7 -1.7
v 2 1.7 -1.7
v 2 2.1 -1.7
v -1.6 0 -1.8
v -1.6 0.1 -1.8
v -1.6 1.7 -1.8
v -1.6 1.8 -1.8
v -0.8 1.7 -1.8
v -0.8 1.8 -1.8
v 1.4 0 -1.8
v 1.4 0.1 -1.8
v 1.6 2.5 -1.8
v 1.6 3.4 -1.8
v 2 2.5 -1.8
v 2 3.4 -1.8
v -2 0 -2
v -2 3.9 -2
v -2 4 -2
v -1.6 1.8 -2
v -1.6 3.4 -2
v -1.6 3.7 -2
v -1.6 3.9 -2
v -0.0999999 3.4 -2
v -0.0999999 3.5 -2
v -0.0999999 3.6 -2
v -0.0999999 3.7 -2
v 0.2 1.8 -2
v 0.2 3.4 -2
v 0.2 3.5 -2
v 0.2 3.6 -2
v 0.2 3.9 -2
v 2 0 -2
v 2 3.4 -2
v 2 3.9 -2
v 2 4 -2
v -2 0 2
v 2 0 2
v -1.6 0 -1.8
v 1.4 0 -1.8
v -1.6 0 -1.9
v 1.4 0 -1.9
v -2 0 -2
v 2 0 -2
v -1.6 0.1 -1.8
v 1.4 0.1 -1.8
v -1.6 0.1 -1.9
v 1.4 0.1 -1.9
v -1.9 0.4 0.0999999
v -1.6 0.4 0.0999999
v -1.9 0.4 -0.1
v -1.6 0.4 -0.1
v -1.9 0.4 -0.3
v -1.6 0.4 -0.3
v -1.9 0.4 -0.5
v -1.8 0.4 -0.5
v -1.9 0.4 -0.6
v -1.8 0.4 -0.6
v -1.9 0.4 -0.7
v -1.6 0.4 -0.7
v -0.8 0.5 -2.38419e-07
v 1.2 0.5 -2.38419e-07
v -0.8 0.5 -0.7
v 1.2 0.5 -0.7
v -0.8 0.5 -1.5
v 0.8 0.5 -1.5
v 1.4 0.5 -1.5
v 1.7 0.5 -1.5
v -0.8 0.5 -1.6
v 2.38419e-07 0.5 -1.6
v 2.38419e-07 0.5 -1.9
v 0.8 0.5 -1.9
v 1.4 0.5 -1.9
v 1.7 0.5 -1.9
v 1.6 1.1 1.9
v 1.7 1.1 1.9
v 1.6 1.1 1.5
v 1.7 1.1 1.5
v 0.1 1.6 -0.2
v 0.9 1.6 -0.2
v 0.7 1.6 -0.6
v 0.9 1.6 -0.6
v 0.1 1.6 -1.2
v 0.7 1.6 -1.2
v 1.4 1.6 -1.7
v 1.5 1.6 -1.7
v 1.4 1.6 -1.8
v 1.5 1.6 -1.8
v 1.7 1.8 1.9
v 1.9 1.8 1.9
v 1.6 1.8 1.5
v 1.7 1.8 1.5
v -1.6 1.8 1.4
v -1.5 1.8 1.4
v -1.6 1.8 1.3
v -1.5 1.8 1.3
v -1.5 1.8 0.6
v 0.2 1.8 0.6
v 1.6 1.8 0.6
v 0.1 1.8 -0.2
v 0.2 1.8 -0.2
v 1.6 1.8 -0.7
v 1.9 1.8 -0.7
v -1.6 1.8 -0.8
v -0.8 1.8 -0.8
v 2.38419e-07 1.8 -1.2
v 0.1 1.8 -1.2
v -1.6 1.8 -1.8
v -0.8 1.8 -1.8
v -1.6 1.8 -1.9
v 2.38419e-07 1.8 -1.9
v 0.2 1.9 1.9
v 0.9 1.9 1.9
v 0.9 1.9 1.5
v 1.6 1.9 1.5
v 0.2 1.9 1.4
v 0.9 1.9 -0.3
v 1.2 1.9 -0.3
v 0.2 1.9 -0.6
v 0.9 1.9 -0.6
v 1.2 1.9 -0.6
v 1.4 1.9 -0.6
v 1.4 1.9 -0.8
v 1.6 1.9 -0.8
v 1.6 2.1 -1.7
v 2 2.1 -1.7
v 1.6 2.1 -1.8
v 2 2.1 -1.8
v 0.2 2.2 -0.8
v 1.8 2.2 -0.8
v 1.2 2.2 -1.1
v 1.8 2.2 -1.1
v 0.2 2.2 -1.2
v 1.2 2.2 -1.2
v 0.2 2.5 -1.2
v 0.7 2.5 -1.2
v 0.2 2.5 -1.8
v 0.7 2.5 -1.8
v 1.8 2.7 -0.8
v 1.9 2.7 -0.8
v 1.8 2.7 -1.1
v 1.9 2.7 -1.1
v -1.7 3.2 -0.6
v -1.6 3.2 -0.6
v -1.7 3.2 -0.7
v -1.6 3.2 -0.7
v -0.7 3.4 1.9
v 0.2 3.4 1.9
v -0.7 3.4 1.4
v 0.2 3.4 1.4
v 0.2 3.4 -1.2
v 0.7 3.4 -1.2
v 1.7 3.4 -1.2
v 1.6 3.4 -1.4
v 1.7 3.4 -1.4
v 0.2 3.4 -1.8
v 0.5 3.4 -1.8
v 0.7 3.4 -1.8
v 1.6 3.4 -1.8
v 2 3.4 -1.8
v 0.5 3.4 -1.9
v 2 3.4 -1.9
v -1.6 3.5 1.4
v -1.2 3.5 1.4
v -1.6 3.5 1.3
v -1.2 3.5 1.3
v -0.8 3.5 1.3
v -1.6 3.5 0.7
v -0.8 3.5 0.7
v -1.2 3.6 1.4
v -0.7 3.6 1.4
v -1.2 3.6 1.3
v -0.7 3.6 1.3
v -1.6 3.7 1.7
v -1.2 3.7 1.7
v -1.2 3.7 1.6
v -0.7 3.7 1.6
v -1.6 3.7 1.4
v -0.7 3.7 1.4
v -1.8 3.7 -1.1
v -1.6 3.7 -1.1
v 1 3.7 -1.1
v 1.8 3.7 -1.1
v -1.8 3.7 -1.2
v -1.6 3.7 -1.2
v 1 3.7 -1.2
v 1.8 3.7 -1.2
v -1.7 3.8 1.7
v -1.6 3.8 1.7
v -1.2 3.8 1.7
v -0.2 3.8 1.7
v -1.2 3.8 1.6
v -0.2 3.8 1.6
v -1.7 3.8 1.3
v -1.6 3.8 1.3
v -1.7 3.9 1.9
v -0.2 3.9 1.9
v -0.2 3.9 1.8
v -1.7 3.9 1.7
v -0.2 3.9 1.7
v -1.7 3.9 1.3
v -1.6 3.9 1.3
v -1.7 3.9 -0.7
v -1.6 3.9 -0.7
v 0.2 3.9 -0.8
v 1 3.9 -0.8
v 0.2 3.9 -1.6
v 0.2 3.9 -1.7
v 0.9 3.9 -1.7
v 0.9 3.9 -1.8
v 1 3.9 -1.8
v 1.6 0.2 1.9
v 1.9 0.2 1.9
v 1.6 0.2 1.8
v 1.9 0.2 1.8
v -0.8 0.2 -1.5
v 0.8 0.2 -1.5
v -0.8 0.2 -1.6
v 2.38419e-07 0.2 -1.6
v 2.38419e-07 0.2 -1.8
v 0.8 0.2 -1.8
v 1.6 0.3 1.8
v 1.9 0.3 1.8
v 1.6 0.3 1.7
v 1.9 0.3 1.7
v -1.9 0.3 0.0999999
v 1.2 0.3 0.0999999
v -1.9 0.3 -0.1
v -1.6 0.3 -0.1
v -1.9 0.3 -0.3
v -1.6 0.3 -0.3
v -1.9 0.3 -0.5
v -1.8 0.3 -0.5
v -1.9 0.3 -0.6
v -1.8 0.3 -0.6
v -1.9 0.3 -0.7
v 1.2 0.3 -0.7
v 1.4 0.3 -1.5
v 1.7 0.3 -1.5
v 2.38419e-07 0.3 -1.8
v 0.8 0.3 -1.8
v 1.4 0.3 -1.8
v 1.7 0.3 -1.8
v 2.38419e-07 0.3 -1.9
v 0.8 0.3 -1.9
v -1.6 0.4 1.9
v -1.5 0.4 1.9
v -1.6 0.4 1.7
v -1.5 0.4 1.7
v 1.4 0.4 -1.8
v 1.7 0.4 -1.8
v 1.4 0.4 -1.9
v 1.7 0.4 -1.9
v -1.6 0.5 1.7
v -1.5 0.5 1.7
v 1.6 0.5 1.7
v 1.9 0.5 1.7
v -1.6 0.5 1
v -1.5 0.5 1
v 1.6 0.5 1
v 1.9 0.5 1
v -1.6 0.7 1
v -1.5 0.7 1
v 1.6 0.7 1
v 1.9 0.7 1
v -1.5 0.7 0.6
v 1.6 0.7 0.6
v 1.2 0.7 0.4
v 1.9 0.7 0.4
v -1.6 0.7 0.0999999
v 1.2 0.7 0.0999999
v -1.6 0.9 -0.7
v -0.8 0.9 -0.7
v -1.6 0.9 -0.8
v -0.8 0.9 -0.8
v 1.2 1 0.4
v 1.9 1 0.4
v 1.2 1 -2.38419e-07
v 1.9 1 -2.38419e-07
v -0.8 1.5 -2.38419e-07
v 1.9 1.5 -2.38419e-07
v 0.9 1.5 -0.1
v 1.9 1.5 -0.1
v 0.7 1.5 -0.6
v 0.9 1.5 -0.6
v -0.8 1.5 -0.8
v 2.38419e-07 1.5 -1.2
v 0.7 1.5 -1.2
v -0.8 1.5 -1.6
v 2.38419e-07 1.5 -1.6
v 1.4 1.5 -1.7
v 1.8 1.5 -1.7
v 1.4 1.5 -1.8
v 1.8 1.5 -1.8
v 0.9 1.6 -0.1
v 1.9 1.6 -0.1
v 0.9 1.6 -0.2
v 1.5 1.6 -0.2
v 1.5 1.6 -0.7
v 1.9 1.6 -0.7
v -0.8 1.6 -1.6
v 2.38419e-07 1.6 -1.6
v -0.8 1.6 -1.7
v 2.38419e-07 1.6 -1.7
v -0.8 1.7 -1.7
v 2.38419e-07 1.7 -1.7
v 1.8 1.7 -1.7
v 2 1.7 -1.7
v -1.6 1.7 -1.8
v -0.8 1.7 -1.8
v 1.8 1.7 -1.8
v 2 1.7 -1.8
v -1.6 1.7 -1.9
v 2.38419e-07 1.7 -1.9
v -1.5 1.8 1.9
v 0.9 1.8 1.9
v 0.9 1.8 1.5
v 1.6 1.8 1.5
v -1.5 1.8 1.4
v -0.4 1.8 1.4
v 0.2 1.8 1.4
v 0.2 1.8 0.6
v 1.6 1.8 0.6
v 0.2 1.8 -0.2
v 1.5 1.8 -0.2
v 0.9 1.8 -0.3
v 1.2 1.8 -0.3
v 0.2 1.8 -0.6
v 0.9 1.8 -0.6
v 1.2 1.8 -0.6
v 1.4 1.8 -0.6
v 1.5 1.8 -0.7
v 1.6 1.8 -0.7
v 1.4 1.8 -1.1
v 1.6 1.8 -1.1
v 1.4 1.8 -1.7
v 1.5 1.8 -1.7
v 1.4 1.8 -1.8
v 1.5 1.8 -1.8
v 0.2 1.9 -0.8
v 1.4 1.9 -0.8
v 1.6 1.9 -0.8
v 1.8 1.9 -0.8
v 1.2 1.9 -1.1
v 1.4 1.9 -1.1
v 1.6 1.9 -1.1
v 1.8 1.9 -1.1
v 0.8 1.9 -1.7
v 0.9 1.9 -1.7
v 1.2 1.9 -1.7
v 1.4 1.9 -1.7
v 0.2 1.9 -1.8
v 0.8 1.9 -1.8
v 0.9 1.9 -1.8
v 1.4 1.9 -1.8
v 0.8 2 -1.7
v 0.9 2 -1.7
v 0.8 2 -1.8
v 0.9 2 -1.8
v 1.3 2.5 -1.8
v 1.6 2.5 -1.8
v 2 2.5 -1.8
v 1.3 2.5 -1.9
v 2 2.5 -1.9
v -1.7 2.6 1.9
v -1.6 2.6 1.9
v -1.6 2.6 1.4
v -1.6 2.6 1.3
v -1.7 2.6 -0.1
v -1.6 2.6 -0.1
v -1.7 2.6 -0.3
v -1.6 2.6 -0.3
v -1.7 2.6 -0.7
v -1.6 2.6 -0.7
v 1.8 2.6 -0.8
v 1.9 2.6 -0.8
v 1.8 2.6 -1.1
v 1.9 2.6 -1.1
v 1.2 2.7 -1.2
v 1.7 2.7 -1.2
v 1.6 2.7 -1.4
v 1.7 2.7 -1.4
v 1.2 2.7 -1.7
v 1.6 2.7 -1.7
v 0.7 2.7 -1.8
v 1.3 2.7 -1.8
v 0.7 2.7 -1.9
v 1.3 2.7 -1.9
v -1.7 3.2 -0.1
v -1.6 3.2 -0.1
v -1.7 3.2 -0.3
v -1.6 3.2 -0.3
v 0.6 3.2 -1.2
v 0.7 3.2 -1.2
v 0.6 3.2 -1.9
v 0.7 3.2 -1.9
v 0.2 3.3 -1.2
v 0.6 3.3 -1.2
v 0.2 3.3 -1.8
v 0.5 3.3 -1.8
v 0.5 3.3 -1.9
v 0.6 3.3 -1.9
v -1.6 3.4 1.4
v -0.8 3.4 1.4
v -1.6 3.4 1.3
v -0.8 3.4 1.3
v -1.6 3.4 0.7
v -0.8 3.4 0.7
v -0.8 3.5 1.4
v -0.7 3.5 1.4
v -0.8 3.5 1.3
v -0.7 3.5 1.3
v -0.7 3.6 1.8
v -0.2 3.6 1.8
v -0.7 3.6 1.6
v -0.2 3.6 1.6
v -1.8 3.6 -1.1
v -1.6 3.6 -1.1
v 0.2 3.6 -1.1
v 1.8 3.6 -1.1
v -1.8 3.6 -1.2
v -1.6 3.6 -1.2
v 0.2 3.6 -1.2
v 1.8 3.6 -1.2
v -0.7 3.7 1.9
v -0.2 3.7 1.9
v -0.7 3.7 1.8
v -0.2 3.7 1.8
v -1.7 3.7 -0.6
v -1.6 3.7 -0.6
v -1.7 3.7 -0.7
v -1.6 3.7 -0.7
v 0.2 3.8 -0.8
v 1 3.8 -0.8
v 0.2 3.8 -1.1
v 1 3.8 -1.1
v 0.2 3.8 -1.2
v 1 3.8 -1.2
v 0.2 3.8 -1.6
v 0.2 3.8 -1.7
v 0.9 3.8 -1.7
v 0.9 3.8 -1.8
v 1 3.8 -1.8
v -2 4 2
v 2 4 2
v -2 4 -2
v 2 4 -2

# faces
f 3/1/1 2/1/1 1/1/1
f 4/1/1 2/1/1 3/1/1
f 5/1/1 3/1/1 1/1/1
f 5/2/1 4/2/1 3/2/1
f 6/1/1 2/1/1 4/1/1
f 6/2/1 4/2/1 5/2/1
f 7/1/1 5/1/1 1/1/1
f 7/1/1 6/1/1 5/1/1
f 8/1/1 2/1/1 6/1/1
f 8/1/1 6/1/1 7/1/1
f 9/3/1 8/3/1 7/3/1
f 10/3/1 8/3/1 9/3/1
f 16/3/1 13/3/1 12/3/1
f 17/3/1 15/3/1 14/3/1
f 18/3/1 15/3/1 17/3/1
f 19/3/1 15/3/1 18/3/1
f 20/1/1 12/1/1 11/1/1
f 21/3/1 16/3/1 12/3/1
f 21/1/1 12/1/1 20/1/1
f 21/3/1 17/3/1 16/3/1
f 21/3/1 18/3/1 17/3/1
f 22/3/1 18/3/1 21/3/1
f 25/3/1 18/3/1 22/3/1
f 29/1/1 24/1/1 23/1/1
f 30/3/1 25/3/1 24/3/1
f 30/3/1 18/3/1 25/3/1
f 32/2/1 27/2/1 26/2/1
f 33/2/1 27/2/1 32/2/1
f 34/1/1 29/1/1 28/1/1
f 35/3/1 31/3/1 30/3/1
f 35/1/1 29/1/1 34/1/1
f 35/1/1 24/1/1 29/1/1
f 35/3/1 30/3/1 24/3/1
f 36/3/1 31/3/1 35/3/1
f 37/3/1 31/3/1 36/3/1
f 40/1/1 39/1/1 38/1/1
f 42/1/1 41/1/1 40/1/1
f 44/1/1 40/1/1 38/1/1
f 44/1/1 43/1/1 42/1/1
f 44/1/1 42/1/1 40/1/1
f 45/1/1 43/1/1 44/1/1
f 46/1/1 43/1/1 45/1/1
f 47/1/1 43/1/1 46/1/1
f 50/1/1 49/1/1 48/1/1
f 52/1/1 50/1/1 48/1/1
f 52/1/1 51/1/1 50/1/1
f 53/1/1 51/1/1 52/1/1
f 57/1/1 55/1/1 54/1/1
f 58/3/1 56/3/1 55/3/1
f 58/1/1 55/1/1 57/1/1
f 59/3/1 56/3/1 58/3/1
f 62/1/1 61/1/1 60/1/1
f 64/1/1 62/1/1 60/1/1
f 64/1/1 63/1/1 62/1/1
f 65/1/1 63/1/1 64/1/1
f 66/1/1 63/1/1 65/1/1
f 67/1/1 63/1/1 66/1/1
f 68/1/1 64/1/1 60/1/1
f 69/1/1 64/1/1 68/1/1
f 70/1/1 66/1/1 65/1/1
f 71/1/1 66/1/1 70/1/1
f 75/1/1 73/1/1 72/1/1
f 76/1/1 73/1/1 75/1/1
f 77/3/1 76/3/1 75/3/1
f 77/1/1 73/1/1 76/1/1
f 78/1/1 73/1/1 77/1/1
f 79/1/1 75/1/1 74/1/1
f 80/3/1 77/3/1 75/3/1
f 80/1/1 75/1/1 79/1/1
f 81/3/1 77/3/1 80/3/1
f 84/1/1 83/1/1 82/1/1
f 86/1/1 85/1/1 84/1/1
f 88/1/1 84/1/1 82/1/1
f 88/1/1 87/1/1 86/1/1
f 88/1/1 86/1/1 84/1/1
f 89/1/1 87/1/1 88/1/1
f 92/1/1 91/1/1 90/1/1
f 93/1/1 91/1/1 92/1/1
f 96/1/1 95/1/1 94/1/1
f 97/1/1 96/1/1 94/1/1
f 98/1/1 96/1/1 97/1/1
f 101/1/1 100/1/1 99/1/1
f 102/1/1 100/1/1 101/1/1
f 105/1/1 104/1/1 103/1/1
f 107/1/1 105/1/1 103/1/1
f 107/1/1 106/1/1 105/1/1
f 108/1/1 106/1/1 107/1/1
f 111/1/1 110/1/1 109/1/1
f 112/1/1 110/1/1 111/1/1
f 115/1/1 114/1/1 113/1/1
f 116/1/1 114/1/1 115/1/1
f 117/1/1 114/1/1 116/1/1
f 122/1/1 119/1/1 118/1/1
f 123/1/1 119/1/1 122/1/1
f 124/1/1 121/1/1 120/1/1
f 125/1/1 121/1/1 124/1/1
f 129/2/1 127/2/1 126/2/1
f 130/2/1 127/2/1 129/2/1
f 132/2/1 129/2/1 128/2/1
f 132/2/1 131/2/1 130/2/1
f 132/2/1 130/2/1 129/2/1
f 133/2/1 131/2/1 132/2/1
f 136/1/1 135/1/1 134/1/1
f 137/1/1 135/1/1 136/1/1
f 139/1/1 136/1/1 134/1/1
f 140/1/1 139/1/1 138/1/1
f 141/1/1 136/1/1 139/1/1
f 141/1/1 139/1/1 140/1/1
f 144/1/1 143/1/1 142/1/1
f 145/1/1 143/1/1 144/1/1
f 146/1/1 143/1/1 145/1/1
f 147/1/1 143/1/1 146/1/1
f 150/1/1 149/1/1 148/1/1
f 151/1/1 149/1/1 150/1/1
f 156/1/1 153/1/1 152/1/1
f 156/1/1 155/1/1 154/1/1
f 156/1/1 154/1/1 153/1/1
f 157/1/1 155/1/1 156/1/1
f 158/1/1 155/1/1 157/1/1
f 161/1/1 160/1/1 159/1/1
f 163/1/1 161/1/1 159/1/1
f 164/1/1 163/1/1 162/1/1
f 165/1/1 161/1/1 163/1/1
f 165/1/1 163/1/1 164/1/1
f 168/1/1 167/1/1 166/1/1
f 170/1/1 168/1/1 166/1/1
f 170/1/1 169/1/1 168/1/1
f 171/1/1 169/1/1 170/1/1
f 174/1/1 173/1/1 172/1/1
f 175/1/1 173/1/1 174/1/1
f 178/1/1 177/1/1 176/1/1
f 179/1/1 177/1/1 178/1/1
f 182/1/1 181/1/1 180/1/1
f 183/1/1 181/1/1 182/1/1
f 186/2/1 185/2/1 184/2/1
f 187/2/1 185/2/1 186/2/1
f 190/1/1 189/1/1 188/1/1
f 192/1/1 191/1/1 190/1/1
f 194/1/1 193/1/1 192/1/1
f 196/1/1 195/1/1 194/1/1
f 198/1/1 197/1/1 196/1/1
f 200/1/1 199/1/1 198/1/1
f 202/1/1 190/1/1 188/1/1
f 202/1/1 201/1/1 200/1/1
f 202/1/1 200/1/1 198/1/1
f 202/1/1 198/1/1 196/1/1
f 202/1/1 196/1/1 194/1/1
f 202/1/1 194/1/1 192/1/1
f 202/1/1 192/1/1 190/1/1
f 203/1/1 201/1/1 202/1/1
f 206/1/1 205/1/1 204/1/1
f 207/1/1 205/1/1 206/1/1
f 208/1/2 209/1/2 214/1/2
f 214/1/2 209/1/2 215/1/2
f 210/1/2 211/1/2 216/1/2
f 216/1/2 211/1/2 217/1/2
f 212/1/2 213/1/2 218/1/2
f 218/1/2 213/1/2 219/1/2
f 220/1/2 221/1/2 222/1/2
f 222/1/2 221/1/2 223/1/2
f 224/1/2 225/1/2 226/1/2
f 226/1/2 225/1/2 227/1/2
f 228/1/2 229/1/2 232/1/2
f 230/1/2 231/1/2 233/1/2
f 233/1/2 231/1/2 234/1/2
f 234/1/2 231/1/2 235/1/2
f 232/1/2 233/1/2 236/1/2
f 233/1/2 234/1/2 236/1/2
f 228/1/2 232/1/2 238/1/2
f 236/1/2 237/1/2 238/1/2
f 232/1/2 236/1/2 238/1/2
f 238/1/2 237/1/2 239/1/2
f 228/1/2 238/1/2 240/1/2
f 240/1/2 238/1/2 241/1/2
f 239/1/2 237/1/2 242/1/2
f 242/1/2 237/1/2 243/1/2
f 244/1/2 245/1/2 246/1/2
f 246/1/2 245/1/2 247/1/2
f 248/1/2 249/1/2 253/1/2
f 253/1/2 249/1/2 254/1/2
f 250/1/2 251/1/2 256/1/2
f 256/1/2 257/1/2 258/1/2
f 254/1/2 255/1/2 259/1/2
f 252/1/2 253/1/2 259/1/2
f 253/1/2 254/1/2 259/1/2
f 259/1/2 255/1/2 260/1/2
f 258/1/2 259/1/2 260/1/2
f 256/1/2 258/1/2 264/1/2
f 258/1/2 260/1/2 264/1/2
f 260/1/2 261/1/2 264/1/2
f 264/1/2 261/1/2 265/1/2
f 265/1/2 261/1/2 266/1/2
f 262/1/2 263/1/2 267/1/2
f 267/1/2 263/1/2 268/1/2
f 256/1/2 264/1/2 269/1/2
f 250/1/2 256/1/2 270/1/2
f 256/1/2 269/1/2 270/1/2
f 270/1/2 269/1/2 271/1/2
f 272/1/2 273/1/2 274/1/2
f 274/1/2 273/1/2 275/1/2
f 276/1/2 277/1/2 278/1/2
f 278/1/2 277/1/2 279/1/2
f 280/1/2 281/1/2 282/1/2
f 282/1/2 281/1/2 283/1/2
f 284/1/2 285/1/2 286/1/2
f 286/1/2 287/1/2 288/1/2
f 284/1/2 286/1/2 290/1/2
f 288/1/2 289/1/2 290/1/2
f 286/1/2 288/1/2 290/1/2
f 290/1/2 289/1/2 291/1/2
f 292/1/2 293/1/2 294/1/2
f 292/1/2 294/1/2 296/1/2
f 294/1/2 295/1/2 296/1/2
f 296/1/2 295/1/2 297/1/2
f 298/3/2 299/3/2 302/3/2
f 300/3/2 301/3/2 302/3/2
f 299/3/2 300/3/2 302/3/2
f 302/3/2 301/3/2 303/3/2
f 304/3/2 305/3/2 306/3/2
f 306/3/2 305/3/2 307/3/2
f 307/3/2 305/3/2 308/3/2
f 308/3/2 305/3/2 309/3/2
f 310/3/2 311/3/2 312/3/2
f 312/3/2 311/3/2 313/3/2
f 314/3/2 315/3/2 316/3/2
f 316/3/2 315/3/2 317/3/2
f 316/2/2 317/2/2 319/2/2
f 319/2/2 317/2/2 320/2/2
f 319/2/2 320/2/2 323/2/2
f 318/2/2 319/2/2 323/2/2
f 320/2/2 321/2/2 323/2/2
f 321/3/2 322/3/2 324/3/2
f 323/2/2 321/2/2 324/2/2
f 324/3/2 322/3/2 325/3/2
f 326/1/2 327/1/2 328/1/2
f 328/1/2 327/1/2 329/1/2
f 330/1/2 331/1/2 332/1/2
f 332/1/2 331/1/2 333/1/2
f 334/1/2 335/1/2 336/1/2
f 334/1/2 336/1/2 338/1/2
f 336/1/2 337/1/2 338/1/2
f 338/1/2 337/1/2 339/1/2
f 340/1/2 341/1/2 342/1/2
f 342/1/2 341/1/2 343/1/2
f 344/2/2 345/2/2 346/2/2
f 346/2/2 345/2/2 347/2/2
f 348/1/2 349/1/2 350/1/2
f 350/1/2 349/1/2 351/1/2
f 352/1/2 353/1/2 354/1/2
f 354/1/2 353/1/2 355/1/2
f 356/1/2 357/1/2 358/1/2
f 356/1/2 358/1/2 360/1/2
f 358/1/2 359/1/2 360/1/2
f 360/1/2 359/1/2 361/1/2
f 362/1/2 363/1/2 364/1/2
f 364/1/2 363/1/2 365/1/2
f 366/1/2 367/1/2 370/1/2
f 370/1/2 367/1/2 371/1/2
f 371/1/2 367/1/2 372/1/2
f 368/1/2 369/1/2 373/1/2
f 373/1/2 369/1/2 374/1/2
f 375/1/2 376/1/2 379/1/2
f 379/1/2 376/1/2 380/1/2
f 377/1/2 378/1/2 381/1/2
f 381/1/2 378/1/2 382/1/2
f 383/1/2 384/1/2 385/1/2
f 385/1/2 386/1/2 387/1/2
f 387/1/2 388/1/2 389/1/2
f 383/1/2 385/1/2 391/1/2
f 389/1/2 390/1/2 391/1/2
f 387/1/2 389/1/2 391/1/2
f 385/1/2 387/1/2 391/1/2
f 391/1/2 390/1/2 392/1/2
f 392/1/2 390/1/2 393/1/2
f 393/1/2 390/1/2 394/1/2
f 395/1/2 396/1/2 397/1/2
f 397/1/2 396/1/2 398/1/2
f 399/2/2 400/2/2 401/2/2
f 401/2/2 400/2/2 402/2/2
f 403/1/2 404/1/2 405/1/2
f 405/1/2 404/1/2 406/1/2
f 403/1/2 405/1/2 407/1/2
f 406/1/2 404/1/2 408/1/2
f 408/1/2 404/1/2 409/1/2
f 407/1/2 408/1/2 409/1/2
f 409/1/2 404/1/2 410/1/2
f 403/1/2 407/1/2 411/1/2
f 407/1/2 409/1/2 411/1/2
f 411/1/2 409/1/2 412/1/2
f 410/1/2 404/1/2 413/1/2
f 413/1/2 404/1/2 414/1/2
f 403/1/2 411/1/2 415/1/2
f 411/2/2 412/2/2 416/2/2
f 415/1/2 411/1/2 416/1/2
f 412/2/2 413/2/2 416/2/2
f 413/2/2 414/2/2 416/2/2
f 403/1/2 415/1/2 417/1/2
f 415/2/2 416/2/2 418/2/2
f 417/1/2 415/1/2 418/1/2
f 417/2/2 418/2/2 419/2/2
f 416/2/2 414/2/2 420/2/2
f 419/2/2 418/2/2 420/2/2
f 418/2/2 416/2/2 420/2/2
f 419/3/2 420/3/2 421/3/2
f 421/3/2 420/3/2 422/3/2
f 426/1/3 424/1/3 423/1/3
f 427/3/3 425/3/3 424/3/3
f 427/1/3 424/1/3 426/1/3
f 428/1/3 426/1/3 423/1/3
f 429/2/3 427/2/3 426/2/3
f 429/1/3 426/1/3 428/1/3
f 430/1/3 428/1/3 423/1/3
f 431/2/3 429/2/3 428/2/3
f 431/1/3 428/1/3 430/1/3
f 432/3/3 425/3/3 427/3/3
f 432/2/3 429/2/3 431/2/3
f 432/2/3 427/2/3 429/2/3
f 433/3/3 425/3/3 432/3/3
f 436/1/3 435/1/3 434/1/3
f 437/1/3 435/1/3 436/1/3
f 443/1/3 439/1/3 438/1/3
f 444/1/3 441/1/3 440/1/3
f 445/1/3 441/1/3 444/1/3
f 446/1/3 443/1/3 442/1/3
f 447/1/3 439/1/3 443/1/3
f 447/1/3 443/1/3 446/1/3
f 448/1/3 439/1/3 447/1/3
f 449/1/3 439/1/3 448/1/3
f 452/1/3 451/1/3 450/1/3
f 453/1/3 451/1/3 452/1/3
f 457/1/3 455/1/3 454/1/3
f 458/1/3 457/1/3 456/1/3
f 459/1/3 455/1/3 457/1/3
f 459/1/3 457/1/3 458/1/3
f 466/1/3 461/1/3 460/1/3
f 467/1/3 465/1/3 464/1/3
f 468/1/3 465/1/3 467/1/3
f 469/1/3 463/1/3 462/1/3
f 471/1/3 461/1/3 466/1/3
f 471/3/3 462/3/3 461/3/3
f 472/3/3 462/3/3 471/3/3
f 473/1/3 470/1/3 469/1/3
f 473/1/3 469/1/3 462/1/3
f 474/1/3 470/1/3 473/1/3
f 475/1/3 465/1/3 468/1/3
f 476/1/3 465/1/3 475/1/3
f 477/1/3 472/1/3 471/1/3
f 477/1/3 471/1/3 466/1/3
f 478/3/3 462/3/3 472/3/3
f 478/1/3 472/1/3 477/1/3
f 479/1/3 477/1/3 466/1/3
f 480/3/3 478/3/3 477/3/3
f 480/1/3 477/1/3 479/1/3
f 481/3/3 480/3/3 479/3/3
f 482/3/3 478/3/3 480/3/3
f 482/3/3 480/3/3 481/3/3
f 483/3/3 462/3/3 478/3/3
f 483/3/3 478/3/3 482/3/3
f 483/1/3 473/1/3 462/1/3
f 484/1/3 473/1/3 483/1/3
f 487/3/3 486/3/3 485/3/3
f 488/3/3 486/3/3 487/3/3
f 489/3/3 486/3/3 488/3/3
f 492/1/3 491/1/3 490/1/3
f 493/1/3 491/1/3 492/1/3
f 496/1/3 495/1/3 494/1/3
f 497/1/3 495/1/3 496/1/3
f 500/3/3 499/3/3 498/3/3
f 501/3/3 499/3/3 500/3/3
f 504/1/3 503/1/3 502/1/3
f 505/1/3 503/1/3 504/1/3
f 508/1/3 507/1/3 506/1/3
f 509/1/3 507/1/3 508/1/3
f 510/1/3 507/1/3 509/1/3
f 511/1/3 507/1/3 510/1/3
f 516/1/3 513/1/3 512/1/3
f 517/1/3 513/1/3 516/1/3
f 518/1/3 515/1/3 514/1/3
f 519/1/3 515/1/3 518/1/3
f 522/1/3 521/1/3 520/1/3
f 523/1/3 521/1/3 522/1/3
f 526/1/3 525/1/3 524/1/3
f 527/1/3 526/1/3 524/1/3
f 528/1/3 526/1/3 527/1/3
f 529/1/3 526/1/3 528/1/3
f 532/1/3 531/1/3 530/1/3
f 533/1/3 531/1/3 532/1/3
f 536/1/3 535/1/3 534/1/3
f 537/1/3 535/1/3 536/1/3
f 540/1/3 539/1/3 538/1/3
f 541/1/3 539/1/3 540/1/3
f 546/1/3 545/1/3 544/1/3
f 547/1/3 545/1/3 546/1/3
f 548/1/3 543/1/3 542/1/3
f 549/1/3 543/1/3 548/1/3
f 552/1/3 551/1/3 550/1/3
f 553/1/3 551/1/3 552/1/3
f 560/1/3 555/1/3 554/1/3
f 562/1/3 557/1/3 556/1/3
f 563/1/3 557/1/3 562/1/3
f 564/1/3 559/1/3 558/1/3
f 565/1/3 559/1/3 564/1/3
f 566/1/3 561/1/3 560/1/3
f 567/1/3 561/1/3 566/1/3
f 568/1/3 560/1/3 554/1/3
f 568/1/3 566/1/3 560/1/3
f 569/1/3 566/1/3 568/1/3
f 572/1/3 571/1/3 570/1/3
f 573/1/3 572/1/3 570/1/3
f 574/1/3 572/1/3 573/1/3
f 577/1/3 576/1/3 575/1/3
f 578/1/3 576/1/3 577/1/3
f 579/1/3 576/1/3 578/1/3
f 583/1/3 581/1/3 580/1/3
f 584/1/3 583/1/3 582/1/3
f 585/1/3 581/1/3 583/1/3
f 585/1/3 583/1/3 584/1/3
f 586/1/3 581/1/3 585/1/3
f 587/1/3 581/1/3 586/1/3
f 590/1/3 589/1/3 588/1/3
f 591/1/3 589/1/3 590/1/3
f 594/1/3 593/1/3 592/1/3
f 595/1/3 593/1/3 594/1/3
f 598/1/3 597/1/3 596/1/3
f 599/1/3 597/1/3 598/1/3
f 603/1/3 598/1/3 596/1/3
f 604/1/3 598/1/3 603/1/3
f 605/2/3 601/2/3 600/2/3
f 605/2/3 602/2/3 601/2/3
f 606/2/3 602/2/3 605/2/3
f 607/2/3 605/2/3 600/2/3
f 608/2/3 605/2/3 607/2/3
f 611/1/3 610/1/3 609/1/3
f 612/1/3 610/1/3 611/1/3
f 617/1/3 614/1/3 613/1/3
f 618/1/3 614/1/3 617/1/3
f 619/1/3 616/1/3 615/1/3
f 620/1/3 616/1/3 619/1/3
f 623/1/3 622/1/3 621/1/3
f 624/1/3 622/1/3 623/1/3
f 629/1/3 628/1/3 627/1/3
f 630/1/3 628/1/3 629/1/3
f 631/2/3 626/2/3 625/2/3
f 632/2/3 626/2/3 631/2/3
f 639/1/3 638/1/3 637/1/3
f 640/1/3 638/1/3 639/1/3
f 641/1/3 636/1/3 635/1/3
f 643/1/3 634/1/3 633/1/3
f 644/1/3 634/1/3 643/1/3
f 645/1/3 642/1/3 641/1/3
f 645/1/3 641/1/3 635/1/3
f 646/1/3 642/1/3 645/1/3
f 648/1/3 642/1/3 646/1/3
f 651/2/3 650/2/3 649/2/3
f 652/2/3 650/2/3 651/2/3
f 653/1/3 648/1/3 647/1/3
f 653/1/3 642/1/3 648/1/3
f 654/1/3 642/1/3 653/1/3
f 660/1/3 653/1/3 647/1/3
f 661/1/3 658/1/3 657/1/3
f 662/1/3 660/1/3 659/1/3
f 663/1/3 653/1/3 660/1/3
f 663/1/3 662/1/3 661/1/3
f 663/1/3 660/1/3 662/1/3
f 664/1/3 653/1/3 663/1/3
f 665/1/3 656/1/3 655/1/3
f 666/1/3 656/1/3 665/1/3
f 667/1/3 661/1/3 657/1/3
f 667/1/3 663/1/3 661/1/3
f 668/1/3 663/1/3 667/1/3
f 669/1/3 663/1/3 668/1/3
f 670/1/3 663/1/3 669/1/3
f 677/1/3 674/1/3 673/1/3
f 678/1/3 674/1/3 677/1/3
f 682/1/3 680/1/3 679/1/3
f 684/1/3 682/1/3 681/1/3
f 685/1/3 676/1/3 675/1/3
f 686/1/3 676/1/3 685/1/3
f 688/1/3 684/1/3 683/1/3
f 689/1/3 672/1/3 671/1/3
f 690/1/3 672/1/3 689/1/3
f 693/1/3 692/1/3 691/1/3
f 694/1/3 692/1/3 693/1/3
f 695/1/3 688/1/3 687/1/3
f 696/1/3 680/1/3 682/1/3
f 696/1/3 688/1/3 695/1/3
f 696/1/3 682/1/3 684/1/3
f 696/1/3 684/1/3 688/1/3
f 697/1/4 698/1/4 700/1/4
f 699/1/4 700/1/4 701/1/4
f 701/1/4 700/1/4 702/1/4
f 700/1/4 698/1/4 703/1/4
f 702/1/4 700/1/4 703/1/4
f 703/1/4 698/1/4 704/1/4
f 704/1/4 698/1/4 705/1/4
f 705/1/4 698/1/4 706/1/4
f 702/1/4 703/1/4 707/1/4
f 707/1/4 703/1/4 708/1/4
f 702/1/4 707/1/4 709/1/4
f 709/1/4 707/1/4 710/1/4
f 711/1/4 712/1/4 713/1/4
f 711/1/4 713/1/4 715/1/4
f 713/1/4 714/1/4 715/1/4
f 715/1/4 714/1/4 716/1/4
f 717/1/4 718/1/4 719/1/4
f 719/1/4 718/1/4 720/1/4
f 721/1/4 722/1/4 724/1/4
f 724/1/4 722/1/4 725/1/4
f 723/1/4 724/1/4 726/1/4
f 726/1/4 724/1/4 727/1/4
f 728/1/4 729/1/4 730/1/4
f 730/1/4 729/1/4 731/1/4
f 732/1/4 733/1/4 734/1/4
f 732/1/4 734/1/4 735/1/4
f 735/1/4 734/1/4 736/1/4
f 737/1/4 738/1/4 739/1/4
f 737/1/4 739/1/4 741/1/4
f 739/1/4 740/1/4 741/1/4
f 741/1/4 740/1/4 742/1/4
f 743/1/4 744/1/4 747/1/4
f 747/1/4 744/1/4 748/1/4
f 745/1/4 746/1/4 749/1/4
f 749/1/4 746/1/4 750/1/4
f 751/1/4 752/1/4 753/1/4
f 753/1/4 752/1/4 754/1/4
f 757/2/4 758/2/4 759/2/4
f 759/2/4 758/2/4 760/2/4
f 755/1/4 756/1/4 761/1/4
f 761/1/4 756/1/4 762/1/4
f 762/1/4 756/1/4 763/1/4
f 763/1/4 756/1/4 764/1/4
f 765/1/4 766/1/4 767/1/4
f 767/1/4 766/1/4 768/1/4
f 769/1/4 770/1/4 771/1/4
f 771/1/4 770/1/4 772/1/4
f 773/2/4 774/2/4 776/2/4
f 774/2/4 775/2/4 776/2/4
f 776/2/4 775/2/4 777/2/4
f 773/2/4 776/2/4 778/2/4
f 778/2/4 776/2/4 779/2/4
f 782/2/4 783/2/4 785/2/4
f 780/2/4 781/2/4 786/2/4
f 784/2/4 785/2/4 787/2/4
f 785/2/4 783/2/4 788/2/4
f 787/2/4 785/2/4 788/2/4
f 780/2/4 786/2/4 789/2/4
f 786/2/4 787/2/4 789/2/4
f 787/2/4 788/2/4 789/2/4
f 789/2/4 788/2/4 790/2/4
f 790/2/4 788/2/4 791/2/4
f 791/2/4 788/2/4 792/2/4
f 793/1/4 794/1/4 795/1/4
f 795/1/4 794/1/4 796/1/4
f 797/1/4 798/1/4 799/1/4
f 799/1/4 798/1/4 800/1/4
f 801/1/4 802/1/4 806/1/4
f 803/1/4 804/1/4 807/1/4
f 805/1/4 806/1/4 808/1/4
f 806/1/4 802/1/4 809/1/4
f 807/1/4 808/1/4 809/1/4
f 808/1/4 806/1/4 809/1/4
f 809/1/4 802/1/4 810/1/4
f 803/1/4 807/1/4 811/1/4
f 807/1/4 809/1/4 811/1/4
f 811/1/4 809/1/4 812/1/4
f 812/1/4 809/1/4 813/1/4
f 813/1/4 809/1/4 814/1/4
f 817/1/4 818/1/4 819/1/4
f 819/1/4 818/1/4 820/1/4
f 815/1/4 816/1/4 821/1/4
f 821/1/4 816/1/4 822/1/4
f 823/1/4 824/1/4 825/1/4
f 825/1/4 824/1/4 826/1/4
f 827/1/4 828/1/4 830/1/4
f 830/1/4 828/1/4 831/1/4
f 831/1/4 828/1/4 832/1/4
f 828/3/4 829/3/4 833/3/4
f 832/1/4 828/1/4 833/1/4
f 831/2/4 832/2/4 834/2/4
f 830/3/4 831/3/4 834/3/4
f 834/2/4 832/2/4 835/2/4
f 835/2/4 832/2/4 836/2/4
f 832/3/4 833/3/4 837/3/4
f 836/2/4 832/2/4 837/2/4
f 827/1/4 830/1/4 838/1/4
f 830/3/4 834/3/4 838/3/4
f 834/3/4 835/3/4 838/3/4
f 838/3/4 835/3/4 839/3/4
f 835/2/4 836/2/4 840/2/4
f 839/3/4 835/3/4 840/3/4
f 836/3/4 837/3/4 841/3/4
f 840/2/4 836/2/4 841/2/4
f 833/3/4 829/3/4 842/3/4
f 841/3/4 837/3/4 842/3/4
f 837/3/4 833/3/4 842/3/4
f 827/1/4 838/1/4 843/1/4
f 838/1/4 839/1/4 843/1/4
f 840/2/4 841/2/4 844/2/4
f 843/1/4 839/1/4 844/1/4
f 841/2/4 842/2/4 844/2/4
f 839/2/4 840/2/4 844/2/4
f 842/3/4 829/3/4 845/3/4
f 844/2/4 842/2/4 845/2/4
f 845/3/4 829/3/4 846/3/4
f 849/1/5 848/1/5 847/1/5
f 850/1/5 848/1/5 849/1/5
f 851/1/5 849/1/5 847/1/5
f 852/1/5 848/1/5 850/1/5
f 853/1/5 851/1/5 847/1/5
f 853/1/5 852/1/5 851/1/5
f 854/1/5 848/1/5 852/1/5
f 854/1/5 852/1/5 853/1/5
f 857/1/5 856/1/5 855/1/5
f 858/1/5 856/1/5 857/1/5
f 861/1/5 860/1/5 859/1/5
f 862/1/5 860/1/5 861/1/5
f 865/1/5 864/1/5 863/1/5
f 866/1/5 864/1/5 865/1/5
f 868/1/5 864/1/5 866/1/5
f 869/1/5 868/1/5 867/1/5
f 870/1/5 864/1/5 868/1/5
f 870/1/5 868/1/5 869/1/5
f 873/1/5 872/1/5 871/1/5
f 874/1/5 872/1/5 873/1/5
f 879/1/5 876/1/5 875/1/5
f 880/1/5 876/1/5 879/1/5
f 881/1/5 876/1/5 880/1/5
f 882/1/5 876/1/5 881/1/5
f 883/1/5 878/1/5 877/1/5
f 884/1/5 878/1/5 883/1/5
f 887/1/5 886/1/5 885/1/5
f 888/1/5 886/1/5 887/1/5
f 891/1/5 890/1/5 889/1/5
f 892/1/5 890/1/5 891/1/5
f 893/1/5 891/1/5 889/1/5
f 894/1/5 891/1/5 893/1/5
f 897/1/5 896/1/5 895/1/5
f 898/1/5 896/1/5 897/1/5
f 902/1/5 900/1/5 899/1/5
f 905/1/5 904/1/5 903/1/5
f 906/1/5 904/1/5 905/1/5
f 907/3/5 906/3/5 905/3/5
f 909/1/5 902/1/5 901/1/5
f 910/3/5 908/3/5 907/3/5
f 911/3/5 908/3/5 910/3/5
f 912/1/5 902/1/5 909/1/5
f 913/1/5 900/1/5 902/1/5
f 913/1/5 902/1/5 912/1/5
f 914/3/5 910/3/5 907/3/5
f 914/3/5 907/3/5 905/3/5
f 915/3/5 910/3/5 914/3/5
f 916/3/5 910/3/5 915/3/5
f 917/3/5 910/3/5 916/3/5
f 919/3/5 916/3/5 915/3/5
f 920/3/5 919/3/5 918/3/5
f 921/3/5 916/3/5 919/3/5
f 921/3/5 919/3/5 920/3/5
f 924/1/5 923/1/5 922/1/5
f 926/1/5 924/1/5 922/1/5
f 926/1/5 925/1/5 924/1/5
f 927/1/5 925/1/5 926/1/5
f 928/1/5 925/1/5 927/1/5
f 929/1/5 927/1/5 926/1/5
f 930/1/5 927/1/5 929/1/5
f 931/1/5 925/1/5 928/1/5
f 932/1/5 925/1/5 931/1/5
f 933/1/5 925/1/5 932/1/5
f 934/1/5 925/1/5 933/1/5
f 937/1/5 936/1/5 935/1/5
f 938/1/5 936/1/5 937/1/5
f 941/2/5 940/2/5 939/2/5
f 942/2/5 940/2/5 941/2/5
f 943/2/5 941/2/5 939/2/5
f 944/2/5 941/2/5 943/2/5
f 947/1/5 946/1/5 945/1/5
f 948/1/5 946/1/5 947/1/5
f 951/1/5 950/1/5 949/1/5
f 952/1/5 950/1/5 951/1/5
f 955/1/5 954/1/5 953/1/5
f 956/1/5 954/1/5 955/1/5
f 959/1/5 958/1/5 957/1/5
f 960/1/5 958/1/5 959/1/5
f 964/2/5 963/2/5 962/2/5
f 965/2/5 963/2/5 964/2/5
f 966/1/5 962/1/5 961/1/5
f 967/1/5 962/1/5 966/1/5
f 968/2/5 964/2/5 962/2/5
f 968/1/5 962/1/5 967/1/5
f 969/2/5 964/2/5 968/2/5
f 971/2/5 969/2/5 968/2/5
f 971/2/5 970/2/5 969/2/5
f 971/2/5 968/2/5 967/2/5
f 972/2/5 970/2/5 971/2/5
f 975/1/5 974/1/5 973/1/5
f 976/1/5 974/1/5 975/1/5
f 978/3/5 976/3/5 975/3/5
f 978/3/5 977/3/5 976/3/5
f 979/3/5 977/3/5 978/3/5
f 982/1/5 981/1/5 980/1/5
f 983/1/5 981/1/5 982/1/5
f 986/1/5 985/1/5 984/1/5
f 988/1/5 986/1/5 984/1/5
f 988/1/5 987/1/5 986/1/5
f 989/1/5 987/1/5 988/1/5
f 994/1/5 991/1/5 990/1/5
f 995/1/5 991/1/5 994/1/5
f 996/2/5 993/2/5 992/2/5
f 997/2/5 993/2/5 996/2/5
f 1002/1/5 1001/1/5 1000/1/5
f 1003/1/5 1001/1/5 1002/1/5
f 1004/1/5 999/1/5 998/1/5
f 1005/1/5 999/1/5 1004/1/5
f 1008/3/5 1007/3/5 1006/3/5
f 1009/3/5 1008/3/5 1006/3/5
f 1010/3/5 1008/3/5 1009/3/5
f 1013/3/5 1012/3/5 1011/3/5
f 1014/3/5 1012/3/5 1013/3/5
f 1017/3/5 1016/3/5 1015/3/5
f 1018/3/5 1016/3/5 1017/3/5
f 1019/3/5 1016/3/5 1018/3/5
f 1020/3/5 1016/3/5 1019/3/5
f 1021/3/5 1016/3/5 1020/3/5
f 1022/1/6 1023/1/6 1024/1/6
f 1024/1/6 1023/1/6 1025/1/6
f 1026/1/6 1027/1/6 1028/1/6
f 1028/1/6 1027/1/6 1029/1/6
f 1029/1/6 1027/1/6 1030/1/6
f 1030/1/6 1027/1/6 1031/1/6
f 1032/1/6 1033/1/6 1034/1/6
f 1034/1/6 1033/1/6 1035/1/6
f 1036/1/6 1037/1/6 1038/1/6
f 1038/1/6 1037/1/6 1039/1/6
f 1039/1/6 1037/1/6 1041/1/6
f 1040/1/6 1041/1/6 1042/1/6
f 1042/1/6 1041/1/6 1043/1/6
f 1043/1/6 1041/1/6 1045/1/6
f 1044/1/6 1045/1/6 1046/1/6
f 1041/1/6 1037/1/6 1047/1/6
f 1046/1/6 1045/1/6 1047/1/6
f 1045/1/6 1041/1/6 1047/1/6
f 1048/1/6 1049/1/6 1052/1/6
f 1052/1/6 1049/1/6 1053/1/6
f 1050/1/6 1051/1/6 1054/1/6
f 1054/1/6 1051/1/6 1055/1/6
f 1056/1/6 1057/1/6 1058/1/6
f 1058/1/6 1057/1/6 1059/1/6
f 1060/1/6 1061/1/6 1062/1/6
f 1062/1/6 1061/1/6 1063/1/6
f 1064/1/6 1065/1/6 1068/1/6
f 1068/1/6 1065/1/6 1069/1/6
f 1066/1/6 1067/1/6 1070/1/6
f 1070/1/6 1067/1/6 1071/1/6
f 1072/1/6 1073/1/6 1076/1/6
f 1074/1/6 1075/1/6 1077/1/6
f 1076/1/6 1077/1/6 1078/1/6
f 1077/1/6 1075/1/6 1079/1/6
f 1078/1/6 1077/1/6 1079/1/6
f 1072/1/6 1076/1/6 1080/1/6
f 1076/1/6 1078/1/6 1080/1/6
f 1080/1/6 1078/1/6 1081/1/6
f 1082/1/6 1083/1/6 1084/1/6
f 1084/1/6 1083/1/6 1085/1/6
f 1086/1/6 1087/1/6 1088/1/6
f 1088/1/6 1087/1/6 1089/1/6
f 1090/1/6 1091/1/6 1092/1/6
f 1092/1/6 1091/1/6 1093/1/6
f 1090/1/6 1092/1/6 1094/1/6
f 1094/1/6 1092/1/6 1095/1/6
f 1090/1/6 1094/1/6 1096/1/6
f 1096/1/6 1094/1/6 1097/1/6
f 1097/1/6 1094/1/6 1098/1/6
f 1096/1/6 1097/1/6 1099/1/6
f 1099/1/6 1097/1/6 1100/1/6
f 1101/1/6 1102/1/6 1103/1/6
f 1103/1/6 1102/1/6 1104/1/6
f 1105/1/6 1106/1/6 1107/1/6
f 1107/1/6 1106/1/6 1108/1/6
f 1108/1/6 1106/1/6 1109/1/6
f 1109/1/6 1106/1/6 1110/1/6
f 1111/1/6 1112/1/6 1113/1/6
f 1113/1/6 1112/1/6 1114/1/6
f 1115/1/6 1116/1/6 1120/1/6
f 1117/1/6 1118/1/6 1121/1/6
f 1121/1/6 1118/1/6 1122/1/6
f 1119/1/6 1120/1/6 1123/1/6
f 1120/1/6 1116/1/6 1124/1/6
f 1123/1/6 1120/1/6 1124/1/6
f 1125/1/6 1126/1/6 1127/1/6
f 1125/1/6 1127/1/6 1129/1/6
f 1127/1/6 1128/1/6 1129/1/6
f 1129/1/6 1128/1/6 1130/1/6
f 1130/1/6 1128/1/6 1131/1/6
f 1131/1/6 1128/1/6 1132/1/6
f 1132/1/6 1128/1/6 1133/1/6
f 1134/1/6 1135/1/6 1136/1/6
f 1136/1/6 1135/1/6 1137/1/6
f 1134/1/6 1136/1/6 1138/1/6
f 1138/1/6 1136/1/6 1139/1/6
f 1137/1/6 1135/1/6 1140/1/6
f 1140/1/6 1135/1/6 1141/1/6
f 1141/1/6 1135/1/6 1142/1/6
f 1141/1/6 1142/1/6 1144/1/6
f 1142/1/6 1143/1/6 1144/1/6
f 1144/1/6 1143/1/6 1145/1/6
f 1146/1/6 1147/1/6 1148/1/6
f 1148/1/6 1147/1/6 1149/1/6
f 1150/1/6 1151/1/6 1154/1/6
f 1154/1/6 1151/1/6 1155/1/6
f 1152/1/6 1153/1/6 1156/1/6
f 1156/1/6 1153/1/6 1157/1/6
f 1150/1/6 1154/1/6 1158/1/6
f 1158/1/6 1154/1/6 1159/1/6
f 1159/1/6 1154/1/6 1160/1/6
f 1150/1/6 1158/1/6 1162/1/6
f 1162/1/6 1158/1/6 1163/1/6
f 1160/1/6 1161/1/6 1164/1/6
f 1159/1/6 1160/1/6 1164/1/6
f 1164/1/6 1161/1/6 1165/1/6
f 1166/1/6 1167/1/6 1168/1/6
f 1168/1/6 1167/1/6 1169/1/6
f 1170/1/6 1171/1/6 1173/1/6
f 1171/1/6 1172/1/6 1173/1/6
f 1173/1/6 1172/1/6 1174/1/6
f 1175/1/6 1176/1/6 1177/1/6
f 1175/1/6 1177/1/6 1178/1/6
f 1175/1/6 1178/1/6 1179/1/6
f 1179/1/6 1178/1/6 1180/1/6
f 1181/1/6 1182/1/6 1183/1/6
f 1183/1/6 1182/1/6 1184/1/6
f 1185/1/6 1186/1/6 1187/1/6
f 1187/1/6 1186/1/6 1188/1/6
f 1189/1/6 1190/1/6 1191/1/6
f 1191/1/6 1190/1/6 1192/1/6
f 1189/1/6 1191/1/6 1193/1/6
f 1193/1/6 1191/1/6 1194/1/6
f 1195/1/6 1196/1/6 1197/1/6
f 1197/1/6 1196/1/6 1198/1/6
f 1199/1/6 1200/1/6 1201/1/6
f 1201/1/6 1200/1/6 1202/1/6
f 1203/1/6 1204/1/6 1205/1/6
f 1205/1/6 1204/1/6 1206/1/6
f 1207/1/6 1208/1/6 1209/1/6
f 1209/1/6 1208/1/6 1210/1/6
f 1210/1/6 1208/1/6 1211/1/6
f 1211/1/6 1208/1/6 1212/1/6
f 1213/1/6 1214/1/6 1215/1/6
f 1215/1/6 1214/1/6 1216/1/6
f 1215/3/6 1216/3/6 1217/3/6
f 1217/3/6 1216/3/6 1218/3/6
f 1219/1/6 1220/1/6 1221/1/6
f 1221/1/6 1220/1/6 1222/1/6
f 1223/1/6 1224/1/6 1225/1/6
f 1225/1/6 1224/1/6 1226/1/6
f 1227/1/6 1228/1/6 1231/1/6
f 1231/1/6 1228/1/6 1232/1/6
f 1229/2/6 1230/2/6 1233/2/6
f 1233/2/6 1230/2/6 1234/2/6
f 1235/1/6 1236/1/6 1237/1/6
f 1237/1/6 1236/1/6 1238/1/6
f 1239/1/6 1240/1/6 1241/1/6
f 1241/1/6 1240/1/6 1242/1/6
f 1243/2/6 1244/2/6 1245/2/6
f 1245/2/6 1244/2/6 1246/2/6
f 1247/2/6 1248/2/6 1249/2/6
f 1249/2/6 1248/2/6 1250/2/6
f 1250/2/6 1248/2/6 1251/2/6
f 1251/2/6 1248/2/6 1252/2/6
f 1252/2/6 1248/2/6 1253/2/6
f 1254/3/6 1255/3/6 1256/3/6
f 1256/3/6 1255/3/6 1257/3/6
